<svg width="18" height="18" viewBox="0 0 18 18" fill="none" xmlns="http://www.w3.org/2000/svg">
<path d="M8.99982 16.1792C10.6573 16.1792 11.9998 14.8367 11.9998 13.1792H5.99982C5.99982 14.8367 7.34232 16.1792 8.99982 16.1792Z" fill="#FFD84D"/>
<path d="M15.3302 11.2592L14.1602 10.0892C13.7364 9.66545 13.5002 9.09545 13.5002 8.4992V6.5792C13.5002 4.10045 11.5614 1.9742 9.08268 1.9292C6.55893 1.8842 4.50018 3.9167 4.50018 6.4292V8.49545C4.50018 9.0917 4.26393 9.66545 3.84018 10.0855L2.67018 11.2555C1.96143 11.9642 2.46393 13.1755 3.46518 13.1755H14.5314C15.5327 13.1755 16.0352 11.9642 15.3264 11.2555L15.3302 11.2592Z" fill="#FFECB2"/>
</svg>
