<svg width="24" height="24" viewBox="0 0 24 24" fill="none" xmlns="http://www.w3.org/2000/svg">
<g clip-path="url(#clip0_876_47003)">
<path d="M21.0898 6.22598L12.8948 2.78098C12.6148 2.64098 12.3098 2.57098 12.0048 2.57098C11.6998 2.57098 11.3898 2.64098 11.1148 2.78098L2.90979 6.22598C1.69479 6.73598 1.69479 8.37598 2.90979 8.88598L5.99978 10.186V16.076C5.99978 18.561 8.68479 20.576 11.9998 20.576C15.3148 20.576 17.9998 18.561 17.9998 16.076V10.186L19.2498 9.66098V13.576C19.2498 13.991 19.5848 14.326 19.9998 14.326C20.4148 14.326 20.7498 13.991 20.7498 13.576V9.03098L21.0898 8.89098C22.3048 8.38098 22.3048 6.74098 21.0898 6.23098V6.22598ZM16.4998 16.071C16.4998 17.696 14.4398 19.071 11.9998 19.071C9.55979 19.071 7.49978 17.696 7.49978 16.071V10.811L11.1098 12.326C11.3898 12.466 11.6948 12.536 11.9998 12.536C12.3048 12.536 12.6148 12.466 12.8898 12.326L16.4998 10.811V16.071ZM17.9998 8.56098L16.4998 9.19098L12.3148 10.951L12.2698 10.971L12.2248 10.991C12.1548 11.026 12.0798 11.041 11.9998 11.041C11.9198 11.041 11.8398 11.021 11.7748 10.991L11.7298 10.971L11.6848 10.951L7.49978 9.19098L5.99978 8.56098L3.59978 7.55098L11.6848 4.15098L11.7298 4.13098L11.7748 4.11098C11.8448 4.07598 11.9198 4.06098 11.9998 4.06098C12.0798 4.06098 12.1598 4.08098 12.2248 4.11098L12.2698 4.13098L12.3148 4.15098L20.3998 7.55098L17.9998 8.56098Z" fill="#AEB7BC"/>
</g>
<defs>
<clipPath id="clip0_876_47003">
<rect width="24" height="24" fill="white"/>
</clipPath>
</defs>
</svg>
