<svg width="24" height="24" viewBox="0 0 24 24" fill="none" xmlns="http://www.w3.org/2000/svg">
<g clip-path="url(#clip0_936_91206)">
<path d="M19.5003 11C20.3303 11 21.0003 10.31 21.0003 9.465V7.905C21.0003 7.3 20.6503 6.75 20.1103 6.5L12.8153 3.18C12.5553 3.06 12.2803 3.005 12.0053 3.005C11.7303 3.005 11.4503 3.065 11.1953 3.18L3.90025 6.5C3.36025 6.745 3.01025 7.295 3.01025 7.905V9.465C3.01025 10.315 3.68025 11 4.51025 11H5.51025V16H4.51025C3.68025 16 3.01025 16.67 3.01025 17.5V19.5C3.01025 20.33 3.68025 21 4.51025 21H19.5103C20.3403 21 21.0103 20.33 21.0103 19.5V17.5C21.0103 16.67 20.3403 16 19.5103 16H18.5103V11H19.5103H19.5003ZM4.50025 9.465V7.905C4.50025 7.88 4.51525 7.865 4.51025 7.865L11.8053 4.545C11.8653 4.515 11.9303 4.505 11.9953 4.505C12.0603 4.505 12.1253 4.52 12.1853 4.545L19.4803 7.865C19.4803 7.865 19.4953 7.875 19.4953 7.905V9.465C19.4953 9.465 19.4853 9.5 19.4903 9.5H4.51525C4.51525 9.5 4.50025 9.49501 4.50025 9.465ZM10.8353 16V11H13.1703V16H10.8353ZM7.00025 11H9.33525V16H7.00025V11ZM19.5003 19.5H4.50025V17.5H19.5003V19.5ZM17.0003 16H14.6653V11H17.0003V16Z" fill="#AEB7BC"/>
<path d="M12 8.25C12.5523 8.25 13 7.80228 13 7.25C13 6.69772 12.5523 6.25 12 6.25C11.4477 6.25 11 6.69772 11 7.25C11 7.80228 11.4477 8.25 12 8.25Z" fill="#AEB7BC"/>
</g>
<defs>
<clipPath id="clip0_936_91206">
<rect width="24" height="24" fill="white"/>
</clipPath>
</defs>
</svg>
