<svg width="24" height="24" viewBox="0 0 24 24" fill="none" xmlns="http://www.w3.org/2000/svg">
<g id="&#235;&#160;&#136;&#236;&#157;&#180;&#236;&#150;&#180; 2">
<path id="Vector" d="M19.065 20C17.215 20 15.38 19.6 13.565 18.8C11.75 18 10.1 16.86 8.62 15.38C7.14 13.9 6 12.255 5.2 10.445C4.4 8.64 4 6.8 4 4.935C4 4.42 4.42 4 4.935 4H7.995C8.72 4 9.34 4.515 9.47 5.23L9.925 7.695C10.015 8.18 9.86 8.675 9.515 9.025L8.085 10.47C7.75 10.805 7.7 11.33 7.96 11.73C8.17 12.055 8.39 12.37 8.625 12.67C9.025 13.19 9.455 13.67 9.915 14.115C10.345 14.545 10.815 14.955 11.325 15.35C11.625 15.58 11.945 15.805 12.275 16.02C12.675 16.28 13.2 16.23 13.54 15.895L14.99 14.445C15.345 14.09 15.86 13.935 16.35 14.035L18.805 14.54C19.505 14.685 20.005 15.295 20.005 16.01V19.075C20.005 19.59 19.585 20.01 19.07 20.01L19.065 20Z" fill="currentColor"/>
</g>
</svg>
