<svg width="24" height="24" viewBox="0 0 24 24" fill="none" xmlns="http://www.w3.org/2000/svg">
<g id="&#235;&#160;&#136;&#236;&#157;&#180;&#236;&#150;&#180; 2">
<path id="Vector" d="M20.92 7.13C20.4 6.81 19.765 6.78 19.215 7.055L16 8.665V8.505C16 7.125 14.88 6.005 13.5 6.005H5.5C4.12 6.005 3 7.125 3 8.505V15.505C3 16.885 4.12 18.005 5.5 18.005H13.5C14.88 18.005 16 16.885 16 15.505V15.345L19.215 16.955C19.465 17.08 19.73 17.14 20 17.14C20.32 17.14 20.635 17.05 20.92 16.875C21.44 16.555 21.75 15.995 21.75 15.385V8.62C21.75 8.01 21.44 7.455 20.92 7.13ZM14.5 15.5C14.5 16.05 14.05 16.5 13.5 16.5H5.5C4.95 16.5 4.5 16.05 4.5 15.5V8.5C4.5 7.95 4.95 7.5 5.5 7.5H13.5C14.05 7.5 14.5 7.95 14.5 8.5V15.5ZM20.25 15.38C20.25 15.5 20.175 15.565 20.13 15.595C20.085 15.62 19.995 15.66 19.885 15.605L15.995 13.66V10.335L19.885 8.39C19.995 8.33501 20.085 8.375 20.13 8.4C20.175 8.43 20.25 8.49 20.25 8.615V15.38Z" fill="currentColor"/>
</g>
</svg>
