<svg width="24" height="24" viewBox="0 0 24 24" fill="none" xmlns="http://www.w3.org/2000/svg">
<g clip-path="url(#clip0_969_35749)">
<path d="M22 9.95999C22 6.14499 18.195 3.04999 13.5 3.04999C8.805 3.04999 5 6.14499 5 9.95999C5 10.2 5.015 10.435 5.045 10.67C3.22 11.575 2 13.19 2 15.035C2 16.63 2.91 18.06 4.335 19L4.12 20.3C4.05 20.71 4.375 21.05 4.755 21.05C4.84 21.05 4.925 21.035 5.01 20.995L7.165 20.07C7.575 20.135 7.995 20.17 8.43 20.17C11.19 20.17 13.535 18.775 14.445 16.82C14.69 16.8 14.94 16.77 15.18 16.73L18.03 17.97C18.14 18.02 18.255 18.04 18.365 18.04C18.865 18.04 19.29 17.585 19.2 17.035L18.915 15.285C20.805 14.015 22.005 12.1 22.005 9.94999L22 9.95999ZM8.425 18.67C8.085 18.67 7.74 18.64 7.395 18.59L6.965 18.52L6.565 18.69L5.855 18.995L5.975 18.28L5.16 17.745C4.105 17.045 3.495 16.06 3.495 15.03C3.495 13.855 4.26 12.805 5.435 12.14C6.48 14.685 9.29 16.575 12.69 16.835C11.84 17.93 10.245 18.67 8.42 18.67H8.425ZM18.07 14.045L17.27 14.58L17.425 15.53L17.52 16.12L15.765 15.355L15.36 15.18L14.925 15.25C14.89 15.255 14.86 15.255 14.825 15.26C14.385 15.325 13.935 15.365 13.49 15.365C13.43 15.365 13.375 15.36 13.315 15.36C10.27 15.3 7.7 13.735 6.82 11.59C6.63 11.125 6.525 10.63 6.505 10.12C6.505 10.065 6.495 10.01 6.495 9.95499C6.495 6.96999 9.635 4.54499 13.495 4.54499C17.355 4.54499 20.495 6.97499 20.495 9.95499C20.495 11.515 19.61 13.005 18.065 14.04L18.07 14.045Z" fill="#AEB7BC"/>
</g>
<defs>
<clipPath id="clip0_969_35749">
<rect width="24" height="24" fill="white"/>
</clipPath>
</defs>
</svg>
