<svg width="24" height="24" viewBox="0 0 24 24" fill="none" xmlns="http://www.w3.org/2000/svg">
<g clip-path="url(#clip0_876_47025)">
<path d="M11.7495 6H6.24951C5.8353 6 5.49951 6.33579 5.49951 6.75C5.49951 7.16421 5.8353 7.5 6.24951 7.5H11.7495C12.1637 7.5 12.4995 7.16421 12.4995 6.75C12.4995 6.33579 12.1637 6 11.7495 6Z" fill="#AEB7BC"/>
<path d="M11.7495 9.59497H6.24951C5.8353 9.59497 5.49951 9.93076 5.49951 10.345C5.49951 10.7592 5.8353 11.095 6.24951 11.095H11.7495C12.1637 11.095 12.4995 10.7592 12.4995 10.345C12.4995 9.93076 12.1637 9.59497 11.7495 9.59497Z" fill="#AEB7BC"/>
<path d="M19.1745 10H14.9995V5.09C14.9995 3.935 14.0645 3 12.9095 3H5.08951C3.93451 3 2.99951 3.935 2.99951 5.09V18.91C2.99951 20.065 3.93451 21 5.08951 21H19.1745C20.1845 21 20.9995 20.185 20.9995 19.175V11.825C20.9995 10.815 20.1845 10 19.1745 10ZM8.48451 19.5V16.5H9.49951V19.5H8.48451ZM13.4995 19.5H10.9995V16.5H11.7495C12.1645 16.5 12.4995 16.165 12.4995 15.75C12.4995 15.335 12.1645 15 11.7495 15H6.24951C5.83451 15 5.49951 15.335 5.49951 15.75C5.49951 16.165 5.83451 16.5 6.24951 16.5H6.98451V19.5H5.08451C4.75951 19.5 4.49451 19.235 4.49451 18.91V5.09C4.49451 4.765 4.75951 4.5 5.08451 4.5H12.9045C13.2295 4.5 13.4945 4.765 13.4945 5.09V19.5H13.4995ZM19.4995 19.175C19.4995 19.355 19.3545 19.5 19.1745 19.5H14.9995V11.5H19.1745C19.3545 11.5 19.4995 11.645 19.4995 11.825V19.175Z" fill="#AEB7BC"/>
</g>
<defs>
<clipPath id="clip0_876_47025">
<rect width="24" height="24" fill="white"/>
</clipPath>
</defs>
</svg>
