<svg width="24" height="24" viewBox="0 0 24 24" fill="none" xmlns="http://www.w3.org/2000/svg">
<g id="&#235;&#160;&#136;&#236;&#157;&#180;&#236;&#150;&#180; 2">
<path id="Vector" d="M15.25 8H8.75C8.33579 8 8 8.33579 8 8.75C8 9.16421 8.33579 9.5 8.75 9.5H15.25C15.6642 9.5 16 9.16421 16 8.75C16 8.33579 15.6642 8 15.25 8Z" fill="currentcolor"/>
<path id="Vector_2" d="M15.25 11.5H8.75C8.33579 11.5 8 11.8358 8 12.25C8 12.6642 8.33579 13 8.75 13H15.25C15.6642 13 16 12.6642 16 12.25C16 11.8358 15.6642 11.5 15.25 11.5Z" fill="currentcolor"/>
<path id="Vector_3" d="M11.25 15H8.75C8.33579 15 8 15.3358 8 15.75C8 16.1642 8.33579 16.5 8.75 16.5H11.25C11.6642 16.5 12 16.1642 12 15.75C12 15.3358 11.6642 15 11.25 15Z" fill="currentcolor"/>
<path id="Vector_4" d="M16.575 5H14.45C14.22 3.86 13.21 3 12 3C10.79 3 9.785 3.86 9.55 5H7.425C6.36 5 5.5 5.865 5.5 6.925V19.07C5.5 20.135 6.365 20.995 7.425 20.995H16.57C17.635 20.995 18.495 20.13 18.495 19.07V6.925C18.495 5.86 17.63 5 16.57 5H16.575ZM12 4.5C12.37 4.5 12.685 4.705 12.86 5H11.14C11.315 4.705 11.63 4.5 12 4.5ZM17 19.075C17 19.31 16.81 19.5 16.575 19.5H7.425C7.19 19.5 7 19.31 7 19.075V6.925C7 6.69 7.19 6.5 7.425 6.5H16.57C16.805 6.5 16.995 6.69 16.995 6.925V19.07L17 19.075Z" fill="currentcolor"/>
</g>
</svg>
