<svg width="18" height="18" viewBox="0 0 18 18" fill="none" xmlns="http://www.w3.org/2000/svg">
<path d="M15.8237 3.84204L7.63184 3.84204L7.63184 14.1911L15.8237 14.1911L15.8237 3.84204Z" fill="white"/>
<path d="M7.31918 3.53143C6.99721 3.53143 6.73779 3.78962 6.73779 4.11097L6.73779 13.8872C6.73779 14.2079 6.99721 14.4667 7.31918 14.4667L15.6186 14.4667C15.9406 14.4667 16.2 14.2079 16.2 13.8872V4.11097C16.2 3.78962 15.9406 3.53143 15.6186 3.53143L7.31918 3.53143ZM7.20266 4.01162L15.7302 4.01162L15.7302 13.981L7.20266 13.981L7.20266 4.01162Z" fill="#1F7144"/>
<path d="M14.7059 4.97021H12.4097V6.21006H14.7059V4.97021Z" fill="#1F7144"/>
<path d="M11.9222 4.97058H9.62598V6.21043H11.9222V4.97058Z" fill="#1F7144"/>
<path d="M14.7059 6.66364H12.4097V7.90348H14.7059V6.66364Z" fill="#1F7144"/>
<path d="M11.9222 6.65771H9.62598V7.89756H11.9222V6.65771Z" fill="#1F7144"/>
<path d="M14.7059 8.37994H12.4097V9.61979H14.7059V8.37994Z" fill="#1F7144"/>
<path d="M11.9222 8.37994H9.62598V9.61979H11.9222V8.37994Z" fill="#1F7144"/>
<path d="M14.7059 10.1161H12.4097V11.3559H14.7059V10.1161Z" fill="#1F7144"/>
<path d="M11.9222 10.1048H9.62598V11.3446H11.9222V10.1048Z" fill="#1F7144"/>
<path d="M14.7059 11.8226H12.4097V13.0625H14.7059V11.8226Z" fill="#1F7144"/>
<path d="M11.9222 11.8226H9.62598V13.0625H11.9222V11.8226Z" fill="#1F7144"/>
<path d="M9.99193 15.7969L9.99193 2.20306L1.7998 3.56208L1.7998 14.4373L9.99193 15.7969Z" fill="url(#paint0_linear_1171_9667)"/>
<path d="M5.00582 6.72858L5.5731 8.2029C5.61401 8.28995 5.63242 8.38345 5.64182 8.44637C5.63746 8.37306 5.6529 8.31583 5.69453 8.2029L6.36668 6.64763L7.39944 6.5863C6.98124 7.38278 6.57906 8.18755 6.19313 9.00015L7.45095 11.4833L6.33786 11.4171L5.66142 9.7968C5.60851 9.67459 5.61872 9.65794 5.60806 9.5981C5.60314 9.6407 5.60143 9.67565 5.5731 9.75264L4.89237 11.3312L3.9375 11.2742L5.04139 9.03327L4.04789 6.78562L5.00582 6.72858Z" fill="white"/>
<defs>
<linearGradient id="paint0_linear_1171_9667" x1="9.9918" y1="9.00005" x2="1.80003" y2="9.00005" gradientUnits="userSpaceOnUse">
<stop stop-color="#1D6B40"/>
<stop offset="1" stop-color="#217748"/>
</linearGradient>
</defs>
</svg>
