<svg width="28" height="28" viewBox="0 0 28 28" fill="none" xmlns="http://www.w3.org/2000/svg">
<g clip-path="url(#clip0_2059_5582)">
<path d="M11.305 24.5005C15.6156 24.5005 19.11 21.0061 19.11 16.6955C19.11 12.3849 15.6156 8.8905 11.305 8.8905C6.99442 8.8905 3.5 12.3849 3.5 16.6955C3.5 21.0061 6.99442 24.5005 11.305 24.5005Z" fill="#FFEBF1"/>
<path d="M20.4867 8.75044L23.9517 5.28544C24.2958 4.94127 24.2958 4.38711 23.9517 4.04877C23.6075 3.71044 23.0533 3.70461 22.715 4.04877L19.25 7.51377L15.785 4.04877C15.4408 3.70461 14.8867 3.70461 14.5483 4.04877C14.21 4.39294 14.2042 4.94711 14.5483 5.28544L18.0133 8.75044L16.1642 10.5996C14.8283 9.53211 13.1425 8.89627 11.305 8.89627C6.99417 8.89627 3.5 12.3904 3.5 16.7013C3.5 21.0121 6.99417 24.5063 11.305 24.5063C15.6158 24.5063 19.11 21.0121 19.11 16.7013C19.11 14.8638 18.4683 13.1721 17.4067 11.8421L19.2558 9.99294L22.7208 13.4579C22.89 13.6271 23.1175 13.7146 23.3392 13.7146C23.5608 13.7146 23.7883 13.6271 23.9575 13.4579C24.3017 13.1138 24.3017 12.5596 23.9575 12.2213L20.4925 8.75627L20.4867 8.75044ZM11.305 22.7504C7.96833 22.7504 5.25 20.0321 5.25 16.6954C5.25 13.3588 7.96833 10.6404 11.305 10.6404C14.6417 10.6404 17.36 13.3588 17.36 16.6954C17.36 20.0321 14.6417 22.7504 11.305 22.7504Z" fill="#FF005E"/>
</g>
<defs>
<clipPath id="clip0_2059_5582">
<rect width="28" height="28" fill="white" transform="translate(0 0.000488281)"/>
</clipPath>
</defs>
</svg>
