<svg width="20" height="20" viewBox="0 0 20 20" fill="none" xmlns="http://www.w3.org/2000/svg">
<g clip-path="url(#clip0_936_91209)">
<path d="M19.0604 7.4966C19.2333 6.97444 19.1919 6.40499 18.9452 5.91337C18.6984 5.42175 18.2666 5.0482 17.7446 4.87479L6.88009 1.22747C6.62149 1.1397 6.348 1.10434 6.07558 1.12344C5.80316 1.14255 5.53728 1.21573 5.29346 1.33873" fill="white"/>
<path d="M5.29347 1.33875C4.80148 1.58496 4.42739 2.01646 4.25345 2.53839L0.939903 12.4984C0.768302 13.0206 0.810368 13.5894 1.05691 14.0807C1.30345 14.572 1.73442 14.9457 2.25565 15.1202L13.125 18.7675C13.3838 18.8542 13.6572 18.889 13.9294 18.8699C14.2017 18.8508 14.4675 18.7782 14.7117 18.6562C14.9553 18.5351 15.1724 18.3667 15.3501 18.1607C15.5278 17.9547 15.6627 17.7153 15.7469 17.4566L19.0652 7.49661" fill="white"/>
<path d="M10.6096 10.9069C10.0115 11.5771 9.2642 12.0974 8.42802 12.4258L7.94429 12.6145V7.99967L8.42802 8.18833C9.26529 8.51495 10.0142 9.03355 10.6145 9.7024C10.9944 9.08086 11.2339 8.38384 11.3164 7.66007C11.3988 6.93631 11.3222 6.20327 11.0919 5.5122C10.8615 4.82113 10.483 4.18872 9.98275 3.65918C9.48253 3.12965 8.87267 2.71576 8.19583 2.44647L6.6092 1.90469C6.44118 1.84956 6.26395 1.82809 6.08763 1.84154C5.91131 1.85499 5.73938 1.90308 5.58167 1.98306C5.42396 2.06304 5.28357 2.17333 5.16854 2.30764C5.05351 2.44194 4.9661 2.5976 4.91131 2.76573L1.58809 12.7354C1.47959 13.0786 1.51063 13.4507 1.6745 13.7712C1.83837 14.0917 2.12187 14.3348 2.46364 14.4478L10.005 16.9632C10.7571 16.16 11.2231 15.1311 11.3307 14.036C11.4383 12.941 11.1814 11.841 10.6 10.9069H10.6096ZM6.2464 7.72395V12.8998H5.49662V7.73846L6.2464 7.72395Z" fill="#2293C8"/>
<path d="M10.1742 10.3022C9.74943 9.80614 9.23391 9.39569 8.65527 9.0929V11.5115C9.23637 11.2063 9.75231 10.7906 10.1742 10.2877" fill="#E43D30"/>
<path d="M17.5076 5.53751L10.5854 3.22528C11.455 4.17612 11.9762 5.39376 12.0641 6.67922C12.152 7.96468 11.8012 9.24193 11.0692 10.3022C11.7805 11.3309 12.1337 12.5649 12.0742 13.8141C12.0148 15.0633 11.546 16.2583 10.7402 17.2147L13.3427 18.0806C13.5107 18.1364 13.6881 18.1584 13.8646 18.1452C14.0411 18.1321 14.2133 18.0841 14.3711 18.004C14.529 17.924 14.6695 17.8134 14.7844 17.6788C14.8993 17.5441 14.9864 17.3881 15.0406 17.2196L18.3783 7.25474C18.4884 6.91218 18.4586 6.54001 18.2955 6.21928C18.1324 5.89856 17.8492 5.65525 17.5076 5.54235V5.53751ZM15.6743 12.8902H14.7358L12.8009 10.3022L14.7358 7.71913H15.7033L13.7684 10.3119L15.6743 12.8902Z" fill="#215C9C"/>
</g>
<defs>
<clipPath id="clip0_936_91209">
<rect width="18.3333" height="17.7577" fill="white" transform="translate(0.833496 1.12109)"/>
</clipPath>
</defs>
</svg>
