<svg width="20" height="20" viewBox="0 0 20 20" fill="none" xmlns="http://www.w3.org/2000/svg">
<g clip-path="url(#clip0_683_37349)">
<path d="M15.2083 17.2916H9.375C9.02917 17.2916 8.75 17.0125 8.75 16.6666C8.75 16.3208 9.02917 16.0416 9.375 16.0416H15.2083C15.7833 16.0416 16.25 15.575 16.25 15V4.99998C16.25 4.42498 15.7833 3.95831 15.2083 3.95831H9.375C9.02917 3.95831 8.75 3.67915 8.75 3.33331C8.75 2.98748 9.02917 2.70831 9.375 2.70831H15.2083C16.4708 2.70831 17.5 3.73748 17.5 4.99998V15C17.5 16.2625 16.4708 17.2916 15.2083 17.2916Z" fill="currentColor"/>
<path d="M12.2917 9.37499H4.6334L6.90006 7.10832C7.1459 6.86249 7.1459 6.46666 6.90006 6.22499C6.65423 5.98332 6.2584 5.97916 6.01673 6.22499L2.6834 9.55833C2.43757 9.80416 2.43757 10.2 2.6834 10.4417L6.01673 13.775C6.13756 13.8958 6.30007 13.9583 6.4584 13.9583C6.61673 13.9583 6.77923 13.8958 6.90006 13.775C7.1459 13.5292 7.1459 13.1333 6.90006 12.8917L4.6334 10.625H12.2917C12.6376 10.625 12.9167 10.3458 12.9167 9.99999C12.9167 9.65416 12.6376 9.37499 12.2917 9.37499Z" fill="currentColor"/>
</g>
<defs>
<clipPath id="clip0_683_37349">
<rect width="20" height="20" fill="white"/>
</clipPath>
</defs>
</svg>
