<svg width="16" height="16" viewBox="0 0 16 16" fill="none" xmlns="http://www.w3.org/2000/svg">
<g clip-path="url(#clip0_828_26563)">
<path d="M6.46 14C8.92319 14 10.92 12.0032 10.92 9.54002C10.92 7.07683 8.92319 5.08002 6.46 5.08002C3.99681 5.08002 2 7.07683 2 9.54002C2 12.0032 3.99681 14 6.46 14Z" fill="#E6F2FF"/>
<path d="M8.87452 2.66669C8.87452 2.94335 9.09785 3.16669 9.37452 3.16669H12.1278L9.23785 6.05669C8.32118 5.32669 7.11451 4.94669 5.81785 5.12669C3.85451 5.40335 2.28118 7.00002 2.03785 8.96669C1.67451 11.88 4.12118 14.3267 7.03451 13.9634C9.00118 13.7167 10.5978 12.1467 10.8745 10.1834C11.0578 8.88669 10.6745 7.68002 9.94451 6.76335L12.8345 3.87335V6.62669C12.8345 6.90335 13.0578 7.12669 13.3345 7.12669C13.6112 7.12669 13.8345 6.90335 13.8345 6.62669V2.83335C13.8345 2.46669 13.5345 2.16669 13.1678 2.16669H9.37452C9.09785 2.16669 8.87452 2.39002 8.87452 2.66669ZM7.04785 12.95C4.68451 13.34 2.66118 11.3167 3.05118 8.95335C3.28785 7.52002 4.44451 6.36669 5.87451 6.13002C8.23785 5.74002 10.2612 7.76335 9.87118 10.1267C9.63452 11.56 8.47785 12.7134 7.04785 12.95Z" fill="#007AFF"/>
</g>
<defs>
<clipPath id="clip0_828_26563">
<rect width="16" height="16" fill="white"/>
</clipPath>
</defs>
</svg>
