<svg width="24" height="24" viewBox="0 0 24 24" fill="none" xmlns="http://www.w3.org/2000/svg">
<g id="&#235;&#160;&#136;&#236;&#157;&#180;&#236;&#150;&#180; 2">
<g id="Group">
<path id="Vector" d="M12 15C13.935 15 15.5 13.435 15.5 11.5V6.5C15.5 4.565 13.935 3 12 3C10.065 3 8.5 4.565 8.5 6.5V11.5C8.5 13.435 10.065 15 12 15ZM10 6.5C10 5.395 10.895 4.5 12 4.5C13.105 4.5 14 5.395 14 6.5V11.5C14 12.605 13.105 13.5 12 13.5C10.895 13.5 10 12.605 10 11.5V6.5Z" fill="currentColor"/>
<path id="Vector_2" d="M17.965 10.75C17.565 10.77 17.255 11.13 17.25 11.53C17.235 14.41 14.885 16.75 12 16.75C9.115 16.75 6.765 14.41 6.75 11.53C6.75 11.13 6.435 10.77 6.035 10.75C5.605 10.73 5.25 11.075 5.25 11.5C5.25 14.97 7.88 17.83 11.25 18.205V20.25C11.25 20.665 11.585 21 12 21C12.415 21 12.75 20.665 12.75 20.25V18.205C16.12 17.83 18.75 14.965 18.75 11.5C18.75 11.075 18.395 10.73 17.965 10.75Z" fill="currentColor"/>
</g>
</g>
</svg>
