<svg width="20" height="20" viewBox="0 0 20 20" fill="none" xmlns="http://www.w3.org/2000/svg">
<g clip-path="url(#clip0_683_37346)">
<path d="M10 5.83331C10.8042 5.83331 11.4584 6.48748 11.4584 7.29165C11.4584 8.09581 10.8042 8.74998 10 8.74998C9.75419 8.74998 9.52085 8.69165 9.30419 8.57498C9.26252 8.55415 9.22085 8.52915 9.18335 8.49998C9.10419 8.44581 9.03335 8.38748 8.96669 8.32081C8.69169 8.04581 8.53752 7.67915 8.53752 7.29165C8.53752 6.90415 8.68752 6.53748 8.96669 6.26248C9.03335 6.19581 9.10419 6.13748 9.18335 6.08331C9.22085 6.05831 9.26252 6.03331 9.30419 6.00831C9.51669 5.89165 9.75002 5.83331 10 5.83331ZM10 4.58331C9.53335 4.58331 9.09169 4.69998 8.70835 4.90831C8.63335 4.94998 8.55835 4.99581 8.48335 5.04581C8.33752 5.14165 8.20419 5.25415 8.08335 5.37498C7.59169 5.86665 7.29169 6.54165 7.29169 7.29165C7.29169 8.04165 7.59585 8.71665 8.08335 9.20831C8.20419 9.32915 8.34169 9.44165 8.48335 9.53748C8.55419 9.58748 8.62919 9.63331 8.70835 9.67498C9.09169 9.88331 9.53335 9.99998 10 9.99998C11.4959 9.99998 12.7084 8.78748 12.7084 7.29165C12.7084 5.79581 11.4959 4.58331 10 4.58331Z" fill="#222729"/>
<path d="M9.99986 2.5C8.70403 2.5 7.48736 2.82917 6.42486 3.40417C6.21236 3.52083 6.00403 3.64583 5.80819 3.77917C5.40819 4.05 5.03736 4.35417 4.69986 4.69583C3.34153 6.05417 2.50403 7.92917 2.50403 10C2.50403 11.225 2.80403 12.375 3.32069 13.3958C3.51653 13.7792 3.74569 14.1417 3.99986 14.4833C4.21653 14.7708 4.44569 15.05 4.69986 15.3042C5.03736 15.6417 5.41236 15.95 5.80819 16.2208C6.00819 16.3542 6.21236 16.4792 6.42486 16.5958C7.48736 17.175 8.70403 17.5 9.99986 17.5C12.4582 17.5 14.6332 16.3125 16.004 14.4833C16.2582 14.1417 16.4874 13.7792 16.6832 13.3958C17.204 12.375 17.4999 11.225 17.4999 10C17.4999 5.85833 14.1415 2.5 9.99986 2.5ZM9.99986 16.25C8.95819 16.25 7.92903 15.9875 7.02069 15.4958C6.8457 15.4 6.67069 15.2958 6.50403 15.1833C6.17069 14.9583 5.86236 14.7042 5.57903 14.4208C5.34986 14.1917 5.14986 13.9458 4.96236 13.6917C6.38736 12.6833 8.12486 12.0833 9.99986 12.0833C11.8749 12.0833 13.6082 12.6792 15.0332 13.6875C13.8957 15.2375 12.0665 16.25 9.99986 16.25ZM9.99986 10.8333C7.89153 10.8333 5.93319 11.4875 4.32069 12.6042C3.94986 11.7958 3.74986 10.9167 3.74986 10C3.74986 8.32917 4.39986 6.7625 5.57903 5.57917C5.86236 5.29583 6.17486 5.0375 6.50403 4.81667C6.67069 4.70417 6.84153 4.6 7.02069 4.50417C7.92903 4.0125 8.95819 3.75 9.99986 3.75C13.4457 3.75 16.2499 6.55417 16.2499 10C16.2499 10.9292 16.0415 11.8083 15.6749 12.6C14.0624 11.4875 12.1082 10.8333 9.99986 10.8333Z" fill="#222729"/>
</g>
<defs>
<clipPath id="clip0_683_37346">
<rect width="20" height="20" fill="white"/>
</clipPath>
</defs>
</svg>
