<svg width="24" height="24" viewBox="0 0 24 24" fill="none" xmlns="http://www.w3.org/2000/svg">
<g id="&#235;&#160;&#136;&#236;&#157;&#180;&#236;&#150;&#180; 2">
<g id="Group">
<path id="Vector" d="M5.39 16.49C4.89 16.435 4.5 16.015 4.5 15.5V8.5C4.5 7.95 4.95 7.5 5.5 7.5H13.5C13.745 7.5 13.965 7.59 14.14 7.74L15.2 6.68C14.755 6.265 14.16 6.005 13.5 6.005H5.5C4.12 6.005 3 7.125 3 8.505V15.505C3 16.42 3.5 17.215 4.235 17.65L5.39 16.495V16.49Z" fill="currentColor"/>
<path id="Vector_2" d="M20.7748 7.04997C20.2648 6.79497 19.6498 6.83497 19.1398 7.08997L18.9198 7.19997L20.5298 5.58997C20.8248 5.29497 20.8248 4.81997 20.5298 4.52997C20.2348 4.23497 19.7598 4.23497 19.4698 4.52997L4.52984 19.47C4.23484 19.765 4.23484 20.24 4.52984 20.53C4.82484 20.825 5.29984 20.825 5.58984 20.53L8.11984 18H13.4998C14.8798 18 15.9998 16.88 15.9998 15.5V15.34L19.2148 16.95C19.4648 17.075 19.7298 17.135 19.9998 17.135C20.3648 17.135 20.7248 17.02 21.0348 16.795C21.5048 16.45 21.7498 15.875 21.7498 15.295V8.61997C21.7498 7.95497 21.3798 7.35497 20.7748 7.04997ZM14.4998 15.5C14.4998 16.05 14.0498 16.5 13.4998 16.5H9.61984L14.4998 11.62V15.5ZM20.2498 15.38C20.2498 15.5 20.1748 15.565 20.1298 15.595C20.0848 15.62 19.9948 15.66 19.8848 15.605L15.9948 13.66V10.335L19.8848 8.38997C19.9948 8.33497 20.0848 8.37497 20.1298 8.39997C20.1748 8.42997 20.2498 8.48997 20.2498 8.61497V15.38Z" fill="currentColor"/>
</g>
</g>
</svg>
