<svg width="24" height="24" viewBox="0 0 24 24" fill="none" xmlns="http://www.w3.org/2000/svg">
<g id="&#235;&#160;&#136;&#236;&#157;&#180;&#236;&#150;&#180; 2">
<g id="Group">
<path id="Vector" d="M10.0311 11.845C10.0111 11.735 9.99609 11.62 9.99609 11.5V6.58995C9.99609 5.54495 10.7561 4.60995 11.7961 4.50995C12.9861 4.39495 13.9961 5.32995 13.9961 6.49995V7.87995L15.4911 6.38495C15.4261 4.45495 13.8111 2.92495 11.8511 3.00495C9.89109 3.08495 8.49609 4.74495 8.49609 6.64495V11.505C8.49609 12.055 8.62609 12.57 8.85109 13.03L10.0311 11.85V11.845Z" fill="currentColor"/>
<path id="Vector_2" d="M17.962 10.75C17.567 10.77 17.262 11.12 17.247 11.51C17.192 13.365 16.377 15.135 14.747 16.02C12.982 16.975 11.252 16.92 9.83703 16.28L11.207 14.91C11.832 15.055 12.517 15.05 13.242 14.75C14.632 14.185 15.492 12.775 15.492 11.275V10.625L20.522 5.59497C20.817 5.29997 20.817 4.82497 20.522 4.53497C20.227 4.23997 19.752 4.23997 19.462 4.53497L4.52203 19.475C4.22703 19.77 4.22703 20.245 4.52203 20.535C4.81703 20.83 5.29203 20.83 5.58203 20.535L8.71703 17.4C9.48203 17.825 10.332 18.11 11.237 18.215V20.26C11.237 20.675 11.572 21.01 11.987 21.01C12.402 21.01 12.737 20.675 12.737 20.26V18.215C16.107 17.84 18.737 14.975 18.737 11.51C18.737 11.085 18.382 10.74 17.952 10.76L17.962 10.75ZM13.837 12.28C13.632 12.755 13.252 13.14 12.777 13.34L13.837 12.28Z" fill="currentColor"/>
<path id="Vector_3" d="M7.57 14.305C7.06 13.5 6.755 12.555 6.75 11.535C6.75 11.08 6.34 10.69 5.89 10.755C5.53 10.81 5.25 11.12 5.25 11.495C5.25 12.945 5.715 14.28 6.49 15.38L7.57 14.3V14.305Z" fill="currentColor"/>
</g>
</g>
</svg>
