<svg width="18" height="18" viewBox="0 0 18 18" fill="none" xmlns="http://www.w3.org/2000/svg">
<path d="M8.625 14.6247C7.79625 14.6247 7.125 13.9535 7.125 13.1247C7.125 12.9935 7.1475 12.8697 7.1775 12.7497H6.375C6.25875 12.7497 6.14625 12.7422 6.03375 12.731C6.015 12.8585 6 12.9897 6 13.1247C6 14.576 7.17375 15.7497 8.625 15.7497C9.85875 15.7497 10.89 14.8985 11.1713 13.751L10.11 13.2597C10.0388 14.021 9.405 14.621 8.625 14.621V14.6247Z" fill="#007AFF"/>
<path d="M15.75 8.62494C15.75 7.51119 14.94 6.58869 13.875 6.40869V10.8412C14.94 10.6612 15.75 9.73869 15.75 8.62494Z" fill="#007AFF"/>
<path d="M12.7425 2.77118L9.9075 4.07993C9.31125 4.35743 8.65875 4.49993 8.0025 4.49993H6.375C4.095 4.49993 2.25 6.34493 2.25 8.62493C2.25 10.9049 3.915 12.5587 6.03375 12.7312C6.14625 12.7387 6.2625 12.7499 6.375 12.7499H8.0025C8.6625 12.7499 9.31125 12.8924 9.9075 13.1699L10.11 13.2637L11.1713 13.7549L12.7425 14.4787C13.2713 14.7224 13.875 14.3362 13.875 13.7549V3.49868C13.875 2.91743 13.2713 2.53118 12.7425 2.77493V2.77118Z" fill="#B3D7FF"/>
</svg>
