<svg width="24" height="24" viewBox="0 0 24 24" fill="none" xmlns="http://www.w3.org/2000/svg">
<g clip-path="url(#clip0_843_10574)">
<path d="M20.4399 15.44L18.8799 13.88C18.3149 13.315 17.9999 12.555 17.9999 11.76V9.2C17.9999 5.895 15.4149 3.06 12.1099 3C12.0749 3 12.0349 3 11.9999 3C8.68492 3 5.99992 5.685 5.99992 9V11.755C5.99992 12.55 5.68492 13.315 5.11992 13.875L3.55992 15.435C2.61492 16.38 3.28492 17.995 4.61992 17.995H7.99992C7.99992 20.205 9.78992 21.995 11.9999 21.995C14.2099 21.995 15.9999 20.205 15.9999 17.995H19.3799C20.7149 17.995 21.3849 16.38 20.4399 15.435V15.44ZM11.9999 20.5C10.6199 20.5 9.49992 19.38 9.49992 18H14.4999C14.4999 19.38 13.3799 20.5 11.9999 20.5ZM15.9999 16.5H4.61992L6.17992 14.94C7.02992 14.09 7.49992 12.96 7.49992 11.76V9.005C7.49992 6.525 9.51992 4.505 11.9999 4.505H12.0849C14.5199 4.55 16.4999 6.66 16.4999 9.205V11.765C16.4999 12.965 16.9699 14.095 17.8199 14.945L19.3799 16.505H15.9999V16.5Z" fill="#222729"/>
</g>
<defs>
<clipPath id="clip0_843_10574">
<rect width="24" height="24" fill="white"/>
</clipPath>
</defs>
</svg>
