<svg width="28" height="28" viewBox="0 0 28 28" fill="none" xmlns="http://www.w3.org/2000/svg">
<g clip-path="url(#clip0_1159_29016)">
<path d="M14.0002 25.6666C20.4435 25.6666 25.6668 20.4433 25.6668 14C25.6668 7.55666 20.4435 2.33331 14.0002 2.33331C7.55684 2.33331 2.3335 7.55666 2.3335 14C2.3335 20.4433 7.55684 25.6666 14.0002 25.6666Z" fill="currentColor"/>
<path d="M14 21.4842C9.87587 21.4842 6.51587 18.13 6.51587 14C6.51587 9.87004 9.87004 6.51587 14 6.51587C18.13 6.51587 21.4842 9.87004 21.4842 14C21.4842 18.13 18.13 21.4842 14 21.4842ZM14 8.06754C10.7275 8.06754 8.06754 10.7275 8.06754 14C8.06754 17.2725 10.7275 19.9325 14 19.9325C17.2725 19.9325 19.9325 17.2725 19.9325 14C19.9325 10.7275 17.2725 8.06754 14 8.06754Z" fill="white"/>
</g>
<defs>
<clipPath id="clip0_1159_29016">
<rect width="28" height="28" fill="white"/>
</clipPath>
</defs>
</svg>
