<svg width="16" height="14" viewBox="0 0 16 14" fill="none" xmlns="http://www.w3.org/2000/svg">
<path d="M14.3088 13.1008C13.4927 13.1008 12.8328 12.4308 12.8502 11.6197C12.8328 10.8086 13.4927 10.1562 14.3088 10.1562C15.0729 10.1562 15.7501 10.8086 15.7501 11.6197C15.7501 12.4308 15.0729 13.1008 14.3088 13.1008Z" fill="#222729"/>
<path d="M4.96637 8.51637H7.20645L8.16152 9.76826C8.76061 9.05416 9.09923 7.97859 9.09923 6.55919C9.09923 3.8262 7.83159 2.34509 5.88671 2.34509C3.94184 2.34509 2.65684 3.8262 2.65684 6.55919C2.65684 9.29219 3.94184 10.7733 5.88671 10.7733C6.13851 10.7733 6.38162 10.7469 6.61604 10.7028L4.96637 8.51637ZM11.7561 6.55919C11.7561 8.83375 10.992 10.5882 9.7591 11.6902L11.5477 14H9.09923L8.09206 12.7128C7.41483 12.9861 6.66814 13.1184 5.88671 13.1184C2.53528 13.1184 0 10.7028 0 6.55919C0 2.39798 2.53528 0 5.88671 0C9.20342 0 11.7561 2.39798 11.7561 6.55919Z" fill="#222729"/>
</svg>
