<svg width="24" height="24" viewBox="0 0 24 24" fill="none" xmlns="http://www.w3.org/2000/svg">
<g id="&#235;&#160;&#136;&#236;&#157;&#180;&#236;&#150;&#180; 2">
<path id="Vector" d="M12 4.5C16.135 4.5 19.5 7.865 19.5 12C19.5 16.135 16.135 19.5 12 19.5C7.865 19.5 4.5 16.135 4.5 12C4.5 7.865 7.865 4.5 12 4.5ZM12 3C7.03 3 3 7.03 3 12C3 16.97 7.03 21 12 21C16.97 21 21 16.97 21 12C21 7.03 16.97 3 12 3Z" fill="currentColor"/>
<path id="Vector_2" d="M14 14.75C13.81 14.75 13.615 14.675 13.47 14.53L11.47 12.53C11.33 12.39 11.25 12.2 11.25 12V7C11.25 6.585 11.585 6.25 12 6.25C12.415 6.25 12.75 6.585 12.75 7V11.69L14.53 13.47C14.825 13.765 14.825 14.24 14.53 14.53C14.385 14.675 14.19 14.75 14 14.75Z" fill="currentColor"/>
</g>
</svg>
