<svg width="28" height="28" viewBox="0 0 28 28" fill="none" xmlns="http://www.w3.org/2000/svg">
<g clip-path="url(#clip0_1159_29020)">
<path d="M13.9999 25.6666C20.4432 25.6666 25.6666 20.4433 25.6666 14C25.6666 7.55666 20.4432 2.33331 13.9999 2.33331C7.5566 2.33331 2.33325 7.55666 2.33325 14C2.33325 20.4433 7.5566 25.6666 13.9999 25.6666Z" fill="currentColor"/>
<path d="M15.2366 14L19.2849 9.9517C19.6291 9.60753 19.6291 9.05337 19.2849 8.71503C18.9407 8.37087 18.3866 8.37087 18.0482 8.71503L13.9999 12.7634L9.95158 8.71503C9.60741 8.37087 9.05325 8.37087 8.71491 8.71503C8.37075 9.0592 8.37075 9.61337 8.71491 9.9517L12.7632 14L8.71491 18.0484C8.37075 18.3925 8.37075 18.9467 8.71491 19.285C8.88408 19.4542 9.11158 19.5417 9.33325 19.5417C9.55491 19.5417 9.78241 19.4542 9.95158 19.285L13.9999 15.2367L18.0482 19.285C18.2174 19.4542 18.4449 19.5417 18.6666 19.5417C18.8882 19.5417 19.1157 19.4542 19.2849 19.285C19.6291 18.9409 19.6291 18.3867 19.2849 18.0484L15.2366 14Z" fill="white"/>
</g>
<defs>
<clipPath id="clip0_1159_29020">
<rect width="28" height="28" fill="white"/>
</clipPath>
</defs>
</svg>
